# File created by Blade
# Date/Time:  Wed Apr 08 16:19:59 2015
# Frame Rate: 120.000 fps
#------------------------------------------------------
:FULLY-SPECIFIED
:DEGREES
1359
root -17.644018 28.251187 1.051291 371.078634 -80.973390 -424.400072
Spine -78.778911 -7.918267 7.310689
Head -88.957241 2.329979 11.497446
LeftShoulder -16.652809 -7.474108 47.505393
LeftArm 229.422634 -65.139628 -203.600274
LeftForeArm -25.881816 -0.000000 12.424529
LeftHand 18.301730 -0.000000 103.642818
LeftHandThumb1 -26.253704 0.000000 33.147579
RightShoulder -30.547992 43.635482 -70.431223
RightArm -4.414951 67.215671 -12.702097
RightForeArm 38.522847 0.000000 18.917700
RightHand 17.828067 0.000000 -102.220216
RightHandThumb1 -24.326973 -0.000000 -32.862282
LeftUpLeg -3.673383 2.931118 7.185610
LeftLeg 44.821887 -0.000000 -0.000000
LeftFoot 17.998665 1.302959 -4.119903
LeftToeBase -42.086855 -0.000000 0.000000
RightUpLeg 0.456451 -9.101524 -3.990701
RightLeg 36.379462 -0.000000 -0.000000
RightFoot 30.701432 -3.482985 2.076843
RightToeBase -48.997231 -0.000000 0.000000
1360
root -17.668412 28.254459 1.030912 371.516798 -81.011564 -424.817307
Spine -78.845425 -7.935870 7.261840
Head -89.000956 2.275453 11.461241
LeftShoulder -16.610933 -7.286574 47.516635
LeftArm 229.297926 -65.233394 -203.630598
LeftForeArm -26.022617 -0.000000 12.546281
LeftHand 18.539021 -0.000000 103.556106
LeftHandThumb1 -26.253704 0.000000 33.147579
RightShoulder -30.210621 43.668714 -70.056569
RightArm -4.350908 66.923938 -13.197746
RightForeArm 38.860823 -0.000000 18.268921
RightHand 17.970765 -0.000000 -102.335372
RightHandThumb1 -24.326973 -0.000000 -32.862282
LeftUpLeg -3.540339 2.984994 7.217526
LeftLeg 44.729786 -0.000000 -0.000000
LeftFoot 17.590461 1.551327 -3.948689
LeftToeBase -42.108320 -0.000000 0.000000
RightUpLeg 0.389977 -9.171678 -3.865715
RightLeg 36.516160 -0.000000 -0.000000
RightFoot 30.490170 -3.795417 1.837067
RightToeBase -48.866507 -0.000000 0.000000
1361
root -17.696178 28.255530 1.007929 371.952661 -81.033654 -425.225209
Spine -78.895606 -7.968142 7.180862
Head -89.034508 2.175497 11.429922
LeftShoulder -16.541891 -7.034292 47.487425
LeftArm 229.357680 -65.275720 -203.840748
LeftForeArm -26.293173 -0.000000 12.643633
LeftHand 18.492533 -0.000000 103.611428
LeftHandThumb1 -26.253704 0.000000 33.147579
RightShoulder -30.016101 43.717977 -69.870428
RightArm -4.314980 66.637497 -13.542269
RightForeArm 39.034991 0.000000 17.782688
RightHand 18.031140 -0.000000 -102.377844
RightHandThumb1 -24.326973 -0.000000 -32.862282
LeftUpLeg -3.420983 3.074506 7.279324
LeftLeg 44.682400 -0.000000 -0.000000
LeftFoot 17.042901 1.749242 -3.946764
LeftToeBase -41.802011 -0.000000 0.000000
RightUpLeg 0.326016 -9.256755 -3.739685
RightLeg 36.639133 -0.000000 -0.000000
RightFoot 30.214285 -4.205846 1.729298
RightToeBase -48.708673 -0.000000 0.000000
1362
root -17.725045 28.253745 0.984323 372.379988 -81.034080 -425.634244
Spine -78.927992 -8.036690 7.126218
Head -89.089351 2.108310 11.447473
LeftShoulder -16.483242 -6.852933 47.440854
LeftArm 228.870125 -65.173607 -203.382293
LeftForeArm -26.235220 -0.000000 12.815785
LeftHand 18.421958 -0.000000 103.538656
LeftHandThumb1 -26.253704 0.000000 33.147579
RightShoulder -29.901653 43.816411 -69.716836
RightArm -4.104719 66.432550 -13.674879
RightForeArm 39.102825 -0.000000 17.358225
RightHand 18.079005 -0.000000 -102.427479
RightHandThumb1 -24.326973 -0.000000 -32.862282
LeftUpLeg -3.271735 3.167637 7.370722
LeftLeg 44.569844 -0.000000 -0.000000
LeftFoot 16.568730 1.887406 -3.752400
LeftToeBase -42.142536 -0.000000 0.000000
RightUpLeg 0.284678 -9.364490 -3.608523
RightLeg 36.766237 -0.000000 -0.000000
RightFoot 30.002527 -4.461617 1.322425
RightToeBase -48.869152 -0.000000 0.000000
1363
root -17.754958 28.249568 0.961043 372.752814 -81.056671 -425.967749
Spine -78.983961 -8.100447 7.101197
Head -89.106662 2.089109 11.478000
LeftShoulder -16.465597 -6.836825 47.472339
LeftArm 228.343002 -65.174568 -202.898353
LeftForeArm -26.090817 -0.000000 13.107347
LeftHand 18.143068 -0.000000 103.633102
LeftHandThumb1 -26.253704 0.000000 33.147579
RightShoulder -29.778072 43.954358 -69.584497
RightArm -3.973251 66.243206 -13.793341
RightForeArm 39.163256 -0.000000 17.014324
RightHand 18.210797 -0.000000 -102.439971
RightHandThumb1 -24.326973 -0.000000 -32.862282
LeftUpLeg -3.139766 3.260646 7.469612
LeftLeg 44.495215 -0.000000 -0.000000
LeftFoot 15.835436 1.930014 -4.147737
LeftToeBase -41.468618 -0.000000 0.000000
RightUpLeg 0.222069 -9.450508 -3.499162
RightLeg 36.904090 -0.000000 -0.000000
RightFoot 29.721087 -4.653310 0.934265
RightToeBase -48.951118 -0.000000 0.000000
1364
root -17.784427 28.241246 0.939618 373.007074 -81.078096 -426.153446
Spine -79.049058 -8.156346 7.038087
Head -89.124069 2.058481 11.452912
LeftShoulder -16.483032 -6.866159 47.518052
LeftArm 227.585313 -65.199625 -202.244107
LeftForeArm -25.968243 -0.000000 13.460747
LeftHand 18.181441 -0.000000 103.603285
LeftHandThumb1 -26.253704 0.000000 33.147579
RightShoulder -29.642431 44.062473 -69.469774
RightArm -3.996271 66.035031 -14.036113
RightForeArm 39.229605 -0.000000 16.728800
RightHand 18.258267 -0.000000 -102.431131
RightHandThumb1 -24.326973 -0.000000 -32.862282
LeftUpLeg -3.034640 3.363860 7.558847
LeftLeg 44.389429 -0.000000 -0.000000
LeftFoot 15.230741 1.866186 -4.117700
LeftToeBase -41.348149 -0.000000 0.000000
RightUpLeg 0.121333 -9.544167 -3.419473
RightLeg 37.068659 -0.000000 -0.000000
RightFoot 29.419089 -4.764761 0.632581
RightToeBase -48.942709 -0.000000 0.000000
1365
root -17.815891 28.231389 0.919089 373.362579 -81.105164 -426.452939
Spine -79.085259 -8.201520 7.000488
Head -89.160429 2.051771 11.403552
LeftShoulder -16.475619 -6.843083 47.526794
LeftArm 227.226449 -65.227521 -201.918078
LeftForeArm -25.910198 -0.000000 13.672372
LeftHand 18.109568 -0.000000 103.563259
LeftHandThumb1 -26.253704 0.000000 33.147579
RightShoulder -29.444126 44.148364 -69.250464
RightArm -4.022457 65.850698 -14.397222
RightForeArm 39.394847 -0.000000 16.347254
RightHand 18.380517 -0.000000 -102.410611
RightHandThumb1 -24.326973 -0.000000 -32.862282
LeftUpLeg -2.914524 3.474582 7.680433
LeftLeg 44.268920 -0.000000 -0.000000
LeftFoot 14.603075 1.821567 -4.060485
LeftToeBase -41.434157 -0.000000 0.000000
RightUpLeg 0.037873 -9.656499 -3.329614
RightLeg 37.243835 -0.000000 -0.000000
RightFoot 29.077519 -4.898375 0.351038
RightToeBase -48.916617 -0.000000 0.000000
